<svg width="1600" height="1000" viewBox="0 0 1600 1000" fill="none" xmlns="http://www.w3.org/2000/svg"><rect width="1600" height="1000" fill="#07110F"/><defs><linearGradient id="sky" x1="0" y1="0" x2="1600" y2="1000"><stop stop-color="#123028"/><stop offset=".5" stop-color="#0A1714"/><stop offset="1" stop-color="#050807"/></linearGradient><linearGradient id="gold" x1="0" y1="0" x2="1" y2="1"><stop stop-color="#F1D79A"/><stop offset="1" stop-color="#9C7431"/></linearGradient></defs><rect width="1600" height="1000" fill="url(#sky)"/><circle cx="1320" cy="150" r="260" fill="#D7B56D" opacity=".08"/><circle cx="250" cy="280" r="300" fill="#64B084" opacity=".08"/><path d="M0 770C235 640 433 675 665 540C918 392 1124 426 1600 222V1000H0V770Z" fill="#0D1B18"/><path d="M0 858C272 745 476 773 704 666C967 543 1165 564 1600 420V1000H0V858Z" fill="#10251F"/><g opacity=".28" stroke="#D7B56D"><path d="M120 720H1480"/><path d="M190 660H1410"/><path d="M260 600H1340"/><path d="M330 540H1270"/><path d="M470 480H1130"/><path d="M800 410V900"/><path d="M660 460L560 900"/><path d="M940 460L1040 900"/><path d="M515 525L300 900"/><path d="M1085 525L1300 900"/></g><g opacity=".95"><rect x="920" y="315" width="360" height="365" rx="20" fill="#12271F" stroke="#D7B56D" stroke-opacity=".28"/><rect x="958" y="365" width="64" height="64" rx="10" fill="url(#gold)" opacity=".85"/><rect x="1045" y="365" width="64" height="64" rx="10" fill="#244238"/><rect x="1132" y="365" width="64" height="64" rx="10" fill="#244238"/><rect x="958" y="460" width="238" height="24" rx="12" fill="#D7B56D" opacity=".35"/><rect x="958" y="510" width="270" height="15" rx="8" fill="#F3EFE4" opacity=".25"/><rect x="958" y="545" width="220" height="15" rx="8" fill="#F3EFE4" opacity=".16"/><rect x="958" y="605" width="150" height="42" rx="21" fill="url(#gold)"/></g><g transform="translate(280 325)"><rect x="0" y="0" width="420" height="270" rx="24" fill="#0A1714" stroke="#D7B56D" stroke-opacity=".32"/><path d="M40 215V92L145 42L250 92V215H40Z" fill="#142B24"/><path d="M145 42L250 92L355 42V215H250V92Z" fill="#1B392F"/><path d="M70 118H112V162H70V118Z" fill="#D7B56D" opacity=".52"/><path d="M178 118H220V162H178V118Z" fill="#D7B56D" opacity=".52"/><path d="M284 118H326V162H284V118Z" fill="#D7B56D" opacity=".52"/></g></svg>