<svg width="1200" height="760" viewBox="0 0 1200 760" fill="none" xmlns="http://www.w3.org/2000/svg"><rect width="1200" height="760" fill="#07110F"/><rect width="1200" height="760" fill="radial-gradient(circle at 20% 20%, #D7B56D, transparent)"/><circle cx="980" cy="120" r="240" fill="#D7B56D" opacity=".09"/><circle cx="230" cy="620" r="300" fill="#64B084" opacity=".08"/><path d="M0 595C190 492 329 508 510 420C720 318 884 332 1200 195V760H0V595Z" fill="#16261F"/><path d="M0 650C235 556 405 575 600 500C806 421 960 428 1200 340V760H0V650Z" fill="#0D1B18"/><g stroke="#D7B56D" stroke-opacity=".34"><path d="M120 620H1080"/><path d="M210 560H990"/><path d="M300 500H900"/><path d="M600 430V700"/><path d="M455 470L330 700"/><path d="M745 470L870 700"/></g><g transform="translate(335 205)"><rect width="530" height="300" rx="28" fill="#0A1714" stroke="#D7B56D" stroke-opacity=".35"/><path d="M70 235V105L192 48L314 105V235H70Z" fill="#142B24"/><path d="M192 48L314 105L440 48V235H314V105Z" fill="#1B392F"/><rect x="105" y="135" width="52" height="62" rx="8" fill="#D7B56D" opacity=".52"/><rect x="224" y="135" width="52" height="62" rx="8" fill="#D7B56D" opacity=".52"/><rect x="345" y="135" width="52" height="62" rx="8" fill="#D7B56D" opacity=".52"/><text x="70" y="278" fill="#D7B56D" font-family="Arial" font-size="24" font-weight="700" letter-spacing="5">STAKING VAULT</text></g></svg>